<?xml version="1.0" standalone="no"?>
<!DOCTYPE svg PUBLIC "-//W3C//DTD SVG 20010904//EN"
 "http://www.w3.org/TR/2001/REC-SVG-20010904/DTD/svg10.dtd">
<svg version="1.0" xmlns="http://www.w3.org/2000/svg"
 width="215.000000pt" height="232.000000pt" viewBox="0 0 215.000000 232.000000"
 preserveAspectRatio="xMidYMid meet">

<g transform="translate(0.000000,232.000000) scale(0.100000,-0.100000)"
fill="#000000" stroke="none">
<path d="M991 2156 c-92 -33 -153 -124 -153 -227 0 -113 55 -182 171 -215 146
-43 290 66 290 221 1 77 -24 130 -79 178 -65 55 -150 72 -229 43z"/>
<path d="M383 1868 c-53 -17 -86 -60 -87 -114 -1 -42 3 -50 40 -83 l41 -36
-58 -160 c-105 -286 -131 -358 -171 -482 l-40 -122 17 -56 c45 -157 232 -241
380 -171 65 30 131 104 150 169 18 59 18 78 5 109 -5 13 -48 131 -95 263 -47
132 -102 284 -122 338 -19 54 -33 100 -30 104 9 9 163 -45 242 -84 76 -38 202
-122 230 -153 17 -19 19 -17 60 38 23 31 61 75 83 96 33 31 39 42 30 53 -19
23 -210 159 -255 182 -88 44 -334 123 -375 120 -7 -1 -27 -6 -45 -11z m136
-638 c55 -157 101 -288 101 -292 0 -5 -49 -8 -110 -8 l-110 0 0 302 c0 167 4
298 9 293 4 -6 54 -138 110 -295z m-148 4 c0 -153 0 -285 0 -291 -1 -17 -211
-19 -211 -2 0 15 203 579 207 575 2 -2 4 -129 4 -282z"/>
<path d="M1224 1288 c-47 -51 -100 -127 -114 -162 -7 -20 -4 -37 15 -81 66
-148 77 -356 30 -541 -20 -75 -81 -201 -139 -284 l-45 -64 47 -51 c26 -27 49
-51 53 -53 8 -4 142 153 185 217 194 289 218 654 62 966 -22 44 -43 84 -47 88
-4 4 -26 -12 -47 -35z"/>
</g>
</svg>
